<?xml version="1.0" encoding="iso-8859-1"?>
<!-- Generator: Adobe Illustrator 19.0.0, SVG Export Plug-In . SVG Version: 6.00 Build 0)  -->
<svg version="1.1" id="Capa_1" xmlns="http://www.w3.org/2000/svg" xmlns:xlink="http://www.w3.org/1999/xlink" x="0px" y="0px"
	 viewBox="0 0 512 512" style="enable-background:new 0 0 512 512;" xml:space="preserve">
<g>
	<g>
		<path d="M437.02,74.98C388.667,26.629,324.38,0,256,0S123.333,26.629,74.98,74.98C26.629,123.333,0,187.62,0,256
			s26.629,132.667,74.98,181.02C123.333,485.371,187.62,512,256,512s132.667-26.629,181.02-74.98
			C485.371,388.667,512,324.38,512,256S485.371,123.333,437.02,74.98z M66.376,378.82c-14.865-23.895-22.706-51.284-22.706-79.686
			c0-83.353,67.813-151.165,151.165-151.165c38.053,0,72.862,14.139,99.464,37.432c-12.033-4.063-24.913-6.267-38.299-6.267
			c-1.034,0-2.065,0.013-3.093,0.039c-90.349,1.656-163.34,75.656-163.34,166.394c0,31.252,8.665,60.516,23.709,85.527
			C95.073,416.228,79.223,398.587,66.376,378.82z M346,299.133c0,49.626-40.374,90-90,90c-49.626,0-90-40.374-90-90
			c0-49.626,40.374-90,90-90C305.626,209.133,346,249.507,346,299.133z M256,482c-1.176,0-2.346-0.027-3.518-0.045
			c-73.61-1.872-132.916-62.335-132.916-136.388c0-24.943,6.734-48.34,18.471-68.48c-1.333,7.149-2.037,14.517-2.037,22.046
			c0,66.168,53.832,120,120,120s120-53.832,120-120c0-1.034-0.013-2.065-0.039-3.093c-1.658-98.472-82.265-178.072-181.126-178.072
			c-70.353,0-131.466,40.312-161.46,99.049C51.9,110.914,144.674,30,256,30c124.617,0,226,101.383,226,226S380.617,482,256,482z"/>
	</g>
</g>
<g>
</g>
<g>
</g>
<g>
</g>
<g>
</g>
<g>
</g>
<g>
</g>
<g>
</g>
<g>
</g>
<g>
</g>
<g>
</g>
<g>
</g>
<g>
</g>
<g>
</g>
<g>
</g>
<g>
</g>
</svg>
